%TF.GenerationSoftware,KiCad,Pcbnew,9.0.4*%
%TF.CreationDate,2026-06-28T10:51:30-05:00*%
%TF.ProjectId,OPENpsu30,4f50454e-7073-4753-9330-2e6b69636164,rev?*%
%TF.SameCoordinates,Original*%
%TF.FileFunction,Copper,L2,Bot*%
%TF.FilePolarity,Positive*%
%FSLAX46Y46*%
G04 Gerber Fmt 4.6, Leading zero omitted, Abs format (unit mm)*
G04 Created by KiCad (PCBNEW 9.0.4) date 2026-06-28 10:51:30*
%MOMM*%
%LPD*%
G01*
G04 APERTURE LIST*
G04 Aperture macros list*
%AMRoundRect*
0 Rectangle with rounded corners*
0 $1 Rounding radius*
0 $2 $3 $4 $5 $6 $7 $8 $9 X,Y pos of 4 corners*
0 Add a 4 corners polygon primitive as box body*
4,1,4,$2,$3,$4,$5,$6,$7,$8,$9,$2,$3,0*
0 Add four circle primitives for the rounded corners*
1,1,$1+$1,$2,$3*
1,1,$1+$1,$4,$5*
1,1,$1+$1,$6,$7*
1,1,$1+$1,$8,$9*
0 Add four rect primitives between the rounded corners*
20,1,$1+$1,$2,$3,$4,$5,0*
20,1,$1+$1,$4,$5,$6,$7,0*
20,1,$1+$1,$6,$7,$8,$9,0*
20,1,$1+$1,$8,$9,$2,$3,0*%
G04 Aperture macros list end*
%TA.AperFunction,Conductor*%
%ADD10C,0.200000*%
%TD*%
%TA.AperFunction,ComponentPad*%
%ADD11R,1.800000X1.800000*%
%TD*%
%TA.AperFunction,ComponentPad*%
%ADD12C,1.800000*%
%TD*%
%TA.AperFunction,ComponentPad*%
%ADD13RoundRect,0.250000X1.800000X-1.330000X1.800000X1.330000X-1.800000X1.330000X-1.800000X-1.330000X0*%
%TD*%
%TA.AperFunction,ComponentPad*%
%ADD14O,4.100000X3.160000*%
%TD*%
%TA.AperFunction,ComponentPad*%
%ADD15R,2.500000X2.500000*%
%TD*%
%TA.AperFunction,ComponentPad*%
%ADD16C,2.500000*%
%TD*%
%TA.AperFunction,ComponentPad*%
%ADD17C,4.000000*%
%TD*%
%TA.AperFunction,ComponentPad*%
%ADD18C,7.000000*%
%TD*%
%TA.AperFunction,ComponentPad*%
%ADD19C,1.600000*%
%TD*%
%TA.AperFunction,ComponentPad*%
%ADD20R,3.000000X3.000000*%
%TD*%
%TA.AperFunction,ComponentPad*%
%ADD21C,3.000000*%
%TD*%
%TA.AperFunction,ComponentPad*%
%ADD22O,3.650000X3.000000*%
%TD*%
%TA.AperFunction,ComponentPad*%
%ADD23RoundRect,0.250001X1.099999X1.399999X-1.099999X1.399999X-1.099999X-1.399999X1.099999X-1.399999X0*%
%TD*%
%TA.AperFunction,ComponentPad*%
%ADD24O,2.700000X3.300000*%
%TD*%
%TA.AperFunction,ComponentPad*%
%ADD25C,3.650000*%
%TD*%
%TA.AperFunction,ComponentPad*%
%ADD26RoundRect,0.249999X1.550001X-0.790001X1.550001X0.790001X-1.550001X0.790001X-1.550001X-0.790001X0*%
%TD*%
%TA.AperFunction,ComponentPad*%
%ADD27O,3.600000X2.080000*%
%TD*%
%TA.AperFunction,ComponentPad*%
%ADD28R,3.650000X3.650000*%
%TD*%
%TA.AperFunction,Conductor*%
%ADD29C,4.000000*%
%TD*%
%TA.AperFunction,Conductor*%
%ADD30C,4.500000*%
%TD*%
%TA.AperFunction,Conductor*%
%ADD31C,1.000000*%
%TD*%
G04 APERTURE END LIST*
D10*
%TO.N,DC_N*%
X96500000Y-56500000D02*
X86000000Y-62000000D01*
X79500000Y-62000000D01*
X79500000Y-51000000D01*
X86500000Y-51000000D01*
X92000000Y-47000000D01*
X96500000Y-47000000D01*
X96500000Y-56500000D01*
%TA.AperFunction,Conductor*%
G36*
X96500000Y-56500000D02*
G01*
X86000000Y-62000000D01*
X79500000Y-62000000D01*
X79500000Y-51000000D01*
X86500000Y-51000000D01*
X92000000Y-47000000D01*
X96500000Y-47000000D01*
X96500000Y-56500000D01*
G37*
%TD.AperFunction*%
X161000000Y-50500000D02*
X171500000Y-50500000D01*
X171500000Y-68500000D01*
X161000000Y-68500000D01*
X161000000Y-50500000D01*
%TA.AperFunction,Conductor*%
G36*
X161000000Y-50500000D02*
G01*
X171500000Y-50500000D01*
X171500000Y-68500000D01*
X161000000Y-68500000D01*
X161000000Y-50500000D01*
G37*
%TD.AperFunction*%
%TD*%
D11*
%TO.P,D1,1,K*%
%TO.N,/DCN*%
X173960000Y-57000000D03*
D12*
%TO.P,D1,2,A*%
%TO.N,/LED*%
X176500000Y-57000000D03*
%TD*%
D13*
%TO.P,J2,1,Pin_1*%
%TO.N,/AC{slash}N*%
X255500000Y-52420000D03*
D14*
%TO.P,J2,2,Pin_2*%
%TO.N,unconnected-(J2-Pin_2-Pad2)*%
X255500000Y-48460000D03*
%TO.P,J2,3,Pin_3*%
%TO.N,unconnected-(J2-Pin_3-Pad3)*%
X255500000Y-44500000D03*
%TO.P,J2,4,Pin_4*%
%TO.N,/AC{slash}L*%
X255500000Y-40540000D03*
%TD*%
D15*
%TO.P,PS1,1,AC/L*%
%TO.N,/<NO NET>*%
X110750000Y-119500000D03*
D16*
%TO.P,PS1,2,AC/N*%
%TO.N,/AC{slash}N*%
X117500000Y-119500000D03*
D17*
%TO.P,PS1,3,+Vout*%
%TO.N,/DC5V*%
X152000000Y-43500000D03*
%TO.P,PS1,4,-Vout*%
%TO.N,/DCN*%
X146500000Y-43500000D03*
%TD*%
D18*
%TO.P,,1*%
%TO.N,DC_N*%
X91500000Y-51500000D03*
%TD*%
%TO.P,,1*%
%TO.N,N/C*%
X261500000Y-132000000D03*
%TD*%
D19*
%TO.P,R1,1*%
%TO.N,/DC5V*%
X188000000Y-66580000D03*
%TO.P,R1,2*%
%TO.N,/LED*%
X188000000Y-56420000D03*
%TD*%
D20*
%TO.P,PS4,1,AC/L*%
%TO.N,/<NO NET>*%
X165200000Y-121500000D03*
D21*
%TO.P,PS4,2,AC/N*%
%TO.N,/AC{slash}N*%
X186000000Y-121500000D03*
%TO.P,PS4,3,-Vo*%
%TO.N,/DC-12V*%
X186000000Y-76500000D03*
%TO.P,PS4,4,+Vo*%
%TO.N,/DCN*%
X178000000Y-76500000D03*
%TD*%
D18*
%TO.P,,1*%
%TO.N,N/C*%
X261500000Y-31500000D03*
%TD*%
%TO.P,,1*%
%TO.N,DC_N*%
X165500000Y-64000000D03*
%TD*%
D22*
%TO.P,J6,1,Pin_1*%
%TO.N,unconnected-(J6-Pin_1-Pad1)*%
X256000000Y-88000000D03*
%TD*%
D23*
%TO.P,J1,1,Pin_1*%
%TO.N,/DCN*%
X101500000Y-76000000D03*
D24*
%TO.P,J1,2,Pin_2*%
X97300000Y-76000000D03*
%TO.P,J1,3,Pin_3*%
X93100000Y-76000000D03*
%TO.P,J1,4,Pin_4*%
%TO.N,/DC5V*%
X88900000Y-76000000D03*
%TO.P,J1,5,Pin_5*%
%TO.N,/DC12V*%
X84700000Y-76000000D03*
%TO.P,J1,6,Pin_6*%
%TO.N,/DC-12V*%
X101500000Y-70500000D03*
%TO.P,J1,7,Pin_7*%
%TO.N,/DCN*%
X97300000Y-70500000D03*
%TO.P,J1,8,Pin_8*%
X93100000Y-70500000D03*
%TO.P,J1,9,Pin_9*%
%TO.N,/DC5V*%
X88900000Y-70500000D03*
%TO.P,J1,10,Pin_10*%
%TO.N,/DC12V*%
X84700000Y-70500000D03*
%TD*%
D25*
%TO.P,J5,1,Pin_1*%
%TO.N,/AC{slash}N*%
X256000000Y-80000000D03*
%TD*%
D20*
%TO.P,PS3,1,AC/N*%
%TO.N,/AC{slash}N*%
X171000000Y-114657500D03*
D21*
%TO.P,PS3,2,AC/L*%
%TO.N,/<NO NET>*%
X181750000Y-114657500D03*
%TO.P,PS3,3,-Vo*%
%TO.N,/DC-12V*%
X181750000Y-76157500D03*
%TO.P,PS3,4,+Vo*%
%TO.N,/DCN*%
X173750000Y-76157500D03*
%TD*%
D15*
%TO.P,PS2,1,AC/L*%
%TO.N,/<NO NET>*%
X197750000Y-119500000D03*
D16*
%TO.P,PS2,2,AC/N*%
%TO.N,/AC{slash}N*%
X204500000Y-119500000D03*
D17*
%TO.P,PS2,3,+Vout*%
%TO.N,/DC12V*%
X239000000Y-43500000D03*
%TO.P,PS2,4,-Vout*%
%TO.N,/DCN*%
X233500000Y-43500000D03*
%TD*%
D26*
%TO.P,J3,1,Pin_1*%
%TO.N,/AC{slash}N*%
X255500000Y-71500000D03*
D27*
%TO.P,J3,2,Pin_2*%
%TO.N,unconnected-(J3-Pin_2-Pad2)*%
X255500000Y-66420000D03*
%TO.P,J3,3,Pin_3*%
%TO.N,/AC{slash}L*%
X255500000Y-61340000D03*
%TD*%
D28*
%TO.P,J4,1,Pin_1*%
%TO.N,/AC{slash}L*%
X256000000Y-93000000D03*
%TD*%
D21*
%TO.P,F1,1*%
%TO.N,/<NO NET>*%
X252000000Y-123600000D03*
%TO.P,F1,2*%
%TO.N,/AC{slash}L*%
X252000000Y-101000000D03*
%TD*%
D18*
%TO.P,,1*%
%TO.N,DC_N*%
X83000000Y-57000000D03*
%TD*%
%TO.P,,1*%
%TO.N,DC_N*%
X167000000Y-56000000D03*
%TD*%
D29*
%TO.N,*%
X261500000Y-31500000D02*
X239000000Y-31500000D01*
D10*
%TO.N,/LED*%
X177080000Y-56420000D02*
X176500000Y-57000000D01*
D29*
%TO.N,/DCN*%
X168000000Y-36000000D02*
X226000000Y-36000000D01*
X97000000Y-70500000D02*
X97300000Y-70500000D01*
X146500000Y-43500000D02*
X114000000Y-76000000D01*
X175703750Y-74203750D02*
X178000000Y-76500000D01*
X175703750Y-74203750D02*
X181000000Y-68907500D01*
X181000000Y-68907500D02*
X181000000Y-49000000D01*
X97000000Y-66000000D02*
X97000000Y-70500000D01*
X143000000Y-36000000D02*
X115000000Y-64000000D01*
D30*
X114000000Y-76000000D02*
X101500000Y-76000000D01*
D29*
X115000000Y-64000000D02*
X99000000Y-64000000D01*
X181000000Y-49000000D02*
X168000000Y-36000000D01*
X93100000Y-71800000D02*
X97300000Y-76000000D01*
D30*
X97300000Y-76000000D02*
X93100000Y-76000000D01*
D29*
X168000000Y-36000000D02*
X143000000Y-36000000D01*
X226000000Y-36000000D02*
X233500000Y-43500000D01*
X99000000Y-64000000D02*
X97000000Y-66000000D01*
X93100000Y-70500000D02*
X93100000Y-71800000D01*
D30*
X93100000Y-70500000D02*
X97300000Y-70500000D01*
X101500000Y-76000000D02*
X97300000Y-76000000D01*
D31*
X173750000Y-76157500D02*
X173750000Y-57210000D01*
D29*
X93100000Y-76000000D02*
X93100000Y-74700000D01*
D10*
X227000000Y-37000000D02*
X233500000Y-43500000D01*
D29*
X93100000Y-74700000D02*
X97300000Y-70500000D01*
X173750000Y-76157500D02*
X175703750Y-74203750D01*
%TO.N,/AC{slash}N*%
X255500000Y-71500000D02*
X262000000Y-71500000D01*
X262500000Y-112500000D02*
X204500000Y-112500000D01*
X184857016Y-107156500D02*
X178642984Y-107156500D01*
X262000000Y-71500000D02*
X262000000Y-58920000D01*
X193500000Y-110500000D02*
X188200516Y-110500000D01*
X199000000Y-110500000D02*
X193500000Y-110500000D01*
X117500000Y-110500000D02*
X171000000Y-110500000D01*
X188200516Y-110500000D02*
X184857016Y-107156500D01*
X262500000Y-72000000D02*
X262500000Y-80000000D01*
X204500000Y-112500000D02*
X201000000Y-112500000D01*
X262000000Y-71500000D02*
X262500000Y-72000000D01*
X171000000Y-110500000D02*
X171000000Y-114657500D01*
X262500000Y-80000000D02*
X262500000Y-112500000D01*
X201000000Y-112500000D02*
X199000000Y-110500000D01*
X117500000Y-110500000D02*
X117500000Y-119500000D01*
X178642984Y-107156500D02*
X175299484Y-110500000D01*
X204500000Y-119500000D02*
X208000000Y-116000000D01*
X190000000Y-117500000D02*
X186000000Y-121500000D01*
X175299484Y-110500000D02*
X171000000Y-110500000D01*
X191500000Y-117500000D02*
X190000000Y-117500000D01*
X262000000Y-58920000D02*
X255500000Y-52420000D01*
X208000000Y-116000000D02*
X204500000Y-112500000D01*
X193500000Y-110500000D02*
X191500000Y-112500000D01*
X191500000Y-112500000D02*
X191500000Y-117500000D01*
X262500000Y-80000000D02*
X256000000Y-80000000D01*
%TD*%
%TA.AperFunction,Conductor*%
%TO.N,/DCN*%
G36*
X109000000Y-84000000D02*
G01*
X80500000Y-84000000D01*
X80500000Y-83500500D01*
X81065890Y-83500500D01*
X81065892Y-83500500D01*
X81193186Y-83466392D01*
X81307314Y-83400500D01*
X81400500Y-83307314D01*
X81466392Y-83193186D01*
X81500500Y-83065892D01*
X81500500Y-70045946D01*
X82349500Y-70045946D01*
X82349500Y-70954053D01*
X82349501Y-70954069D01*
X82389717Y-71259542D01*
X82469464Y-71557162D01*
X82587376Y-71841826D01*
X82587381Y-71841837D01*
X82599999Y-71863691D01*
X82741438Y-72108670D01*
X82741440Y-72108673D01*
X82741441Y-72108674D01*
X82929007Y-72353115D01*
X82929013Y-72353122D01*
X83146877Y-72570986D01*
X83146883Y-72570991D01*
X83391330Y-72758562D01*
X83562830Y-72857578D01*
X83658162Y-72912618D01*
X83658167Y-72912620D01*
X83658170Y-72912622D01*
X83942836Y-73030535D01*
X84240456Y-73110282D01*
X84337921Y-73123113D01*
X84367904Y-73127061D01*
X84431801Y-73155328D01*
X84470272Y-73213652D01*
X84471103Y-73283517D01*
X84434031Y-73342740D01*
X84370825Y-73372519D01*
X84367904Y-73372939D01*
X84240457Y-73389717D01*
X83942837Y-73469464D01*
X83658173Y-73587376D01*
X83658162Y-73587381D01*
X83391325Y-73741441D01*
X83146884Y-73929007D01*
X83146877Y-73929013D01*
X82929013Y-74146877D01*
X82929007Y-74146884D01*
X82741441Y-74391325D01*
X82587381Y-74658162D01*
X82587376Y-74658173D01*
X82469464Y-74942837D01*
X82389717Y-75240457D01*
X82349501Y-75545930D01*
X82349500Y-75545946D01*
X82349500Y-76454053D01*
X82349501Y-76454069D01*
X82389717Y-76759542D01*
X82469464Y-77057162D01*
X82587376Y-77341826D01*
X82587381Y-77341837D01*
X82649821Y-77449985D01*
X82741438Y-77608670D01*
X82741440Y-77608673D01*
X82741441Y-77608674D01*
X82929007Y-77853115D01*
X82929013Y-77853122D01*
X83146877Y-78070986D01*
X83146884Y-78070992D01*
X83164303Y-78084358D01*
X83391330Y-78258562D01*
X83562830Y-78357578D01*
X83658162Y-78412618D01*
X83658167Y-78412620D01*
X83658170Y-78412622D01*
X83942836Y-78530535D01*
X84240456Y-78610282D01*
X84545940Y-78650500D01*
X84545947Y-78650500D01*
X84854053Y-78650500D01*
X84854060Y-78650500D01*
X85159544Y-78610282D01*
X85457164Y-78530535D01*
X85741830Y-78412622D01*
X86008670Y-78258562D01*
X86253117Y-78070991D01*
X86470991Y-77853117D01*
X86658562Y-77608670D01*
X86683776Y-77564996D01*
X86692613Y-77549692D01*
X86743179Y-77501477D01*
X86811786Y-77488253D01*
X86876651Y-77514221D01*
X86907387Y-77549692D01*
X86941437Y-77608669D01*
X87129007Y-77853115D01*
X87129013Y-77853122D01*
X87346877Y-78070986D01*
X87346884Y-78070992D01*
X87364303Y-78084358D01*
X87591330Y-78258562D01*
X87762830Y-78357578D01*
X87858162Y-78412618D01*
X87858167Y-78412620D01*
X87858170Y-78412622D01*
X88142836Y-78530535D01*
X88440456Y-78610282D01*
X88745940Y-78650500D01*
X88745947Y-78650500D01*
X89054053Y-78650500D01*
X89054060Y-78650500D01*
X89359544Y-78610282D01*
X89657164Y-78530535D01*
X89941830Y-78412622D01*
X90208670Y-78258562D01*
X90453117Y-78070991D01*
X90670991Y-77853117D01*
X90858562Y-77608670D01*
X91012622Y-77341830D01*
X91130535Y-77057164D01*
X91146235Y-76998570D01*
X91182598Y-76938911D01*
X91245445Y-76908381D01*
X91314820Y-76916675D01*
X91368699Y-76961160D01*
X91380570Y-76983211D01*
X91437223Y-77119983D01*
X91437227Y-77119993D01*
X91558480Y-77330009D01*
X91706110Y-77522405D01*
X91706116Y-77522412D01*
X91877587Y-77693883D01*
X91877594Y-77693889D01*
X92069990Y-77841519D01*
X92280006Y-77962772D01*
X92280021Y-77962779D01*
X92504060Y-78055578D01*
X92738312Y-78118346D01*
X92850000Y-78133049D01*
X92850000Y-76654120D01*
X92895818Y-76673099D01*
X93031056Y-76700000D01*
X93168944Y-76700000D01*
X93304182Y-76673099D01*
X93350000Y-76654120D01*
X93350000Y-78133048D01*
X93461687Y-78118346D01*
X93695939Y-78055578D01*
X93919978Y-77962779D01*
X93919993Y-77962772D01*
X94130009Y-77841519D01*
X94322405Y-77693889D01*
X94322412Y-77693883D01*
X94493883Y-77522412D01*
X94493889Y-77522405D01*
X94641519Y-77330009D01*
X94762772Y-77119993D01*
X94762779Y-77119978D01*
X94855578Y-76895939D01*
X94918346Y-76661687D01*
X94949998Y-76421264D01*
X94950000Y-76421248D01*
X94950000Y-76250000D01*
X93754121Y-76250000D01*
X93773099Y-76204182D01*
X93800000Y-76068944D01*
X93800000Y-75931056D01*
X93773099Y-75795818D01*
X93754121Y-75750000D01*
X94950000Y-75750000D01*
X94950000Y-75578751D01*
X95450000Y-75578751D01*
X95450000Y-75750000D01*
X96645879Y-75750000D01*
X96626901Y-75795818D01*
X96600000Y-75931056D01*
X96600000Y-76068944D01*
X96626901Y-76204182D01*
X96645879Y-76250000D01*
X95450000Y-76250000D01*
X95450000Y-76421248D01*
X95450001Y-76421264D01*
X95481653Y-76661687D01*
X95544421Y-76895939D01*
X95637220Y-77119978D01*
X95637227Y-77119993D01*
X95758480Y-77330009D01*
X95906110Y-77522405D01*
X95906116Y-77522412D01*
X96077587Y-77693883D01*
X96077594Y-77693889D01*
X96269990Y-77841519D01*
X96480006Y-77962772D01*
X96480021Y-77962779D01*
X96704060Y-78055578D01*
X96938312Y-78118346D01*
X97050000Y-78133049D01*
X97050000Y-76654120D01*
X97095818Y-76673099D01*
X97231056Y-76700000D01*
X97368944Y-76700000D01*
X97504182Y-76673099D01*
X97550000Y-76654120D01*
X97550000Y-78133048D01*
X97661687Y-78118346D01*
X97895939Y-78055578D01*
X98119978Y-77962779D01*
X98119993Y-77962772D01*
X98330009Y-77841519D01*
X98522405Y-77693889D01*
X98522412Y-77693883D01*
X98693883Y-77522412D01*
X98693889Y-77522405D01*
X98841519Y-77330009D01*
X98962772Y-77119993D01*
X98962779Y-77119978D01*
X99055578Y-76895939D01*
X99118346Y-76661687D01*
X99149998Y-76421264D01*
X99150000Y-76421248D01*
X99150000Y-76250000D01*
X97954121Y-76250000D01*
X97973099Y-76204182D01*
X98000000Y-76068944D01*
X98000000Y-75931056D01*
X97973099Y-75795818D01*
X97954121Y-75750000D01*
X99150000Y-75750000D01*
X99150000Y-75578751D01*
X99149998Y-75578735D01*
X99118346Y-75338312D01*
X99055578Y-75104060D01*
X98962779Y-74880021D01*
X98962772Y-74880006D01*
X98841519Y-74669990D01*
X98804965Y-74622351D01*
X98749459Y-74550014D01*
X99650000Y-74550014D01*
X99650000Y-75750000D01*
X100845879Y-75750000D01*
X100826901Y-75795818D01*
X100800000Y-75931056D01*
X100800000Y-76068944D01*
X100826901Y-76204182D01*
X100845879Y-76250000D01*
X99650000Y-76250000D01*
X99650000Y-77449985D01*
X99660493Y-77552689D01*
X99660494Y-77552696D01*
X99715641Y-77719118D01*
X99715643Y-77719123D01*
X99807684Y-77868344D01*
X99931655Y-77992315D01*
X100080876Y-78084356D01*
X100080881Y-78084358D01*
X100247303Y-78139505D01*
X100247310Y-78139506D01*
X100350014Y-78149999D01*
X100350027Y-78150000D01*
X101250000Y-78150000D01*
X101250000Y-76654120D01*
X101295818Y-76673099D01*
X101431056Y-76700000D01*
X101568944Y-76700000D01*
X101704182Y-76673099D01*
X101750000Y-76654120D01*
X101750000Y-78150000D01*
X102649973Y-78150000D01*
X102649985Y-78149999D01*
X102752689Y-78139506D01*
X102752696Y-78139505D01*
X102919118Y-78084358D01*
X102919123Y-78084356D01*
X103068344Y-77992315D01*
X103192315Y-77868344D01*
X103284356Y-77719123D01*
X103284358Y-77719118D01*
X103339505Y-77552696D01*
X103339506Y-77552689D01*
X103349999Y-77449985D01*
X103350000Y-77449972D01*
X103350000Y-76250000D01*
X102154121Y-76250000D01*
X102173099Y-76204182D01*
X102200000Y-76068944D01*
X102200000Y-75931056D01*
X102173099Y-75795818D01*
X102154121Y-75750000D01*
X103350000Y-75750000D01*
X103350000Y-74550027D01*
X103349999Y-74550014D01*
X103339506Y-74447310D01*
X103339505Y-74447303D01*
X103284358Y-74280881D01*
X103284356Y-74280876D01*
X103192315Y-74131655D01*
X103068344Y-74007684D01*
X102919123Y-73915643D01*
X102919118Y-73915641D01*
X102752696Y-73860494D01*
X102752689Y-73860493D01*
X102649985Y-73850000D01*
X101750000Y-73850000D01*
X101750000Y-75345879D01*
X101704182Y-75326901D01*
X101568944Y-75300000D01*
X101431056Y-75300000D01*
X101295818Y-75326901D01*
X101250000Y-75345879D01*
X101250000Y-73850000D01*
X100350014Y-73850000D01*
X100247310Y-73860493D01*
X100247303Y-73860494D01*
X100080881Y-73915641D01*
X100080876Y-73915643D01*
X99931655Y-74007684D01*
X99807684Y-74131655D01*
X99715643Y-74280876D01*
X99715641Y-74280881D01*
X99660494Y-74447303D01*
X99660493Y-74447310D01*
X99650000Y-74550014D01*
X98749459Y-74550014D01*
X98693889Y-74477594D01*
X98693883Y-74477587D01*
X98522412Y-74306116D01*
X98522405Y-74306110D01*
X98330009Y-74158480D01*
X98119993Y-74037227D01*
X98119978Y-74037220D01*
X97895939Y-73944421D01*
X97661687Y-73881653D01*
X97550000Y-73866948D01*
X97550000Y-75345879D01*
X97504182Y-75326901D01*
X97368944Y-75300000D01*
X97231056Y-75300000D01*
X97095818Y-75326901D01*
X97050000Y-75345879D01*
X97050000Y-73866948D01*
X97049999Y-73866948D01*
X96938312Y-73881653D01*
X96704060Y-73944421D01*
X96480021Y-74037220D01*
X96480006Y-74037227D01*
X96269990Y-74158480D01*
X96077594Y-74306110D01*
X96077587Y-74306116D01*
X95906116Y-74477587D01*
X95906110Y-74477594D01*
X95758480Y-74669990D01*
X95637227Y-74880006D01*
X95637220Y-74880021D01*
X95544421Y-75104060D01*
X95481653Y-75338312D01*
X95450001Y-75578735D01*
X95450000Y-75578751D01*
X94950000Y-75578751D01*
X94949998Y-75578735D01*
X94918346Y-75338312D01*
X94855578Y-75104060D01*
X94762779Y-74880021D01*
X94762772Y-74880006D01*
X94641519Y-74669990D01*
X94493889Y-74477594D01*
X94493883Y-74477587D01*
X94322412Y-74306116D01*
X94322405Y-74306110D01*
X94130009Y-74158480D01*
X93919993Y-74037227D01*
X93919978Y-74037220D01*
X93695939Y-73944421D01*
X93461687Y-73881653D01*
X93350000Y-73866948D01*
X93350000Y-75345879D01*
X93304182Y-75326901D01*
X93168944Y-75300000D01*
X93031056Y-75300000D01*
X92895818Y-75326901D01*
X92850000Y-75345879D01*
X92850000Y-73866948D01*
X92849999Y-73866948D01*
X92738312Y-73881653D01*
X92504060Y-73944421D01*
X92280021Y-74037220D01*
X92280006Y-74037227D01*
X92069990Y-74158480D01*
X91877594Y-74306110D01*
X91877587Y-74306116D01*
X91706116Y-74477587D01*
X91706110Y-74477594D01*
X91558480Y-74669990D01*
X91437227Y-74880006D01*
X91437222Y-74880016D01*
X91380570Y-75016788D01*
X91336729Y-75071191D01*
X91270435Y-75093256D01*
X91202735Y-75075977D01*
X91155125Y-75024839D01*
X91146236Y-75001434D01*
X91130535Y-74942836D01*
X91012622Y-74658170D01*
X91012620Y-74658167D01*
X91012618Y-74658162D01*
X90920450Y-74498524D01*
X90858562Y-74391330D01*
X90670991Y-74146883D01*
X90670986Y-74146877D01*
X90453122Y-73929013D01*
X90453115Y-73929007D01*
X90208674Y-73741441D01*
X90208673Y-73741440D01*
X90208670Y-73741438D01*
X90102280Y-73680014D01*
X89941837Y-73587381D01*
X89941826Y-73587376D01*
X89657162Y-73469464D01*
X89359542Y-73389717D01*
X89246128Y-73374786D01*
X89232094Y-73372938D01*
X89168198Y-73344673D01*
X89129727Y-73286348D01*
X89128896Y-73216483D01*
X89165968Y-73157260D01*
X89229174Y-73127481D01*
X89232087Y-73127062D01*
X89359544Y-73110282D01*
X89657164Y-73030535D01*
X89941830Y-72912622D01*
X90208670Y-72758562D01*
X90453117Y-72570991D01*
X90670991Y-72353117D01*
X90858562Y-72108670D01*
X91012622Y-71841830D01*
X91130535Y-71557164D01*
X91146235Y-71498570D01*
X91182598Y-71438911D01*
X91245445Y-71408381D01*
X91314820Y-71416675D01*
X91368699Y-71461160D01*
X91380570Y-71483211D01*
X91437223Y-71619983D01*
X91437227Y-71619993D01*
X91558480Y-71830009D01*
X91706110Y-72022405D01*
X91706116Y-72022412D01*
X91877587Y-72193883D01*
X91877594Y-72193889D01*
X92069990Y-72341519D01*
X92280006Y-72462772D01*
X92280021Y-72462779D01*
X92504060Y-72555578D01*
X92738312Y-72618346D01*
X92850000Y-72633049D01*
X92850000Y-71154120D01*
X92895818Y-71173099D01*
X93031056Y-71200000D01*
X93168944Y-71200000D01*
X93304182Y-71173099D01*
X93350000Y-71154120D01*
X93350000Y-72633048D01*
X93461687Y-72618346D01*
X93695939Y-72555578D01*
X93919978Y-72462779D01*
X93919993Y-72462772D01*
X94130009Y-72341519D01*
X94322405Y-72193889D01*
X94322412Y-72193883D01*
X94493883Y-72022412D01*
X94493889Y-72022405D01*
X94641519Y-71830009D01*
X94762772Y-71619993D01*
X94762779Y-71619978D01*
X94855578Y-71395939D01*
X94918346Y-71161687D01*
X94949998Y-70921264D01*
X94950000Y-70921248D01*
X94950000Y-70750000D01*
X93754121Y-70750000D01*
X93773099Y-70704182D01*
X93800000Y-70568944D01*
X93800000Y-70431056D01*
X93773099Y-70295818D01*
X93754121Y-70250000D01*
X94950000Y-70250000D01*
X94950000Y-70078751D01*
X95450000Y-70078751D01*
X95450000Y-70250000D01*
X96645879Y-70250000D01*
X96626901Y-70295818D01*
X96600000Y-70431056D01*
X96600000Y-70568944D01*
X96626901Y-70704182D01*
X96645879Y-70750000D01*
X95450000Y-70750000D01*
X95450000Y-70921248D01*
X95450001Y-70921264D01*
X95481653Y-71161687D01*
X95544421Y-71395939D01*
X95637220Y-71619978D01*
X95637227Y-71619993D01*
X95758480Y-71830009D01*
X95906110Y-72022405D01*
X95906116Y-72022412D01*
X96077587Y-72193883D01*
X96077594Y-72193889D01*
X96269990Y-72341519D01*
X96480006Y-72462772D01*
X96480021Y-72462779D01*
X96704060Y-72555578D01*
X96938312Y-72618346D01*
X97050000Y-72633049D01*
X97050000Y-71154120D01*
X97095818Y-71173099D01*
X97231056Y-71200000D01*
X97368944Y-71200000D01*
X97504182Y-71173099D01*
X97550000Y-71154120D01*
X97550000Y-72633048D01*
X97661687Y-72618346D01*
X97895939Y-72555578D01*
X98119978Y-72462779D01*
X98119993Y-72462772D01*
X98330009Y-72341519D01*
X98522405Y-72193889D01*
X98522412Y-72193883D01*
X98693883Y-72022412D01*
X98693889Y-72022405D01*
X98841519Y-71830009D01*
X98962772Y-71619993D01*
X98962779Y-71619978D01*
X99019429Y-71483212D01*
X99063269Y-71428808D01*
X99129563Y-71406743D01*
X99197263Y-71424022D01*
X99244874Y-71475159D01*
X99253764Y-71498568D01*
X99269464Y-71557161D01*
X99269465Y-71557164D01*
X99387376Y-71841826D01*
X99387381Y-71841837D01*
X99399999Y-71863691D01*
X99541438Y-72108670D01*
X99541440Y-72108673D01*
X99541441Y-72108674D01*
X99729007Y-72353115D01*
X99729013Y-72353122D01*
X99946877Y-72570986D01*
X99946883Y-72570991D01*
X100191330Y-72758562D01*
X100362830Y-72857578D01*
X100458162Y-72912618D01*
X100458167Y-72912620D01*
X100458170Y-72912622D01*
X100742836Y-73030535D01*
X101040456Y-73110282D01*
X101345940Y-73150500D01*
X101345947Y-73150500D01*
X101654053Y-73150500D01*
X101654060Y-73150500D01*
X101959544Y-73110282D01*
X102257164Y-73030535D01*
X102541830Y-72912622D01*
X102808670Y-72758562D01*
X103053117Y-72570991D01*
X103270991Y-72353117D01*
X103458562Y-72108670D01*
X103612622Y-71841830D01*
X103730535Y-71557164D01*
X103810282Y-71259544D01*
X103850500Y-70954060D01*
X103850500Y-70045940D01*
X103810282Y-69740456D01*
X103730535Y-69442836D01*
X103612622Y-69158170D01*
X103612620Y-69158167D01*
X103612618Y-69158162D01*
X103520450Y-68998524D01*
X103458562Y-68891330D01*
X103270991Y-68646883D01*
X103270986Y-68646877D01*
X103053122Y-68429013D01*
X103053115Y-68429007D01*
X102808674Y-68241441D01*
X102808673Y-68241440D01*
X102808670Y-68241438D01*
X102702280Y-68180014D01*
X102541837Y-68087381D01*
X102541826Y-68087376D01*
X102257162Y-67969464D01*
X101959542Y-67889717D01*
X101654069Y-67849501D01*
X101654066Y-67849500D01*
X101654060Y-67849500D01*
X101345940Y-67849500D01*
X101345934Y-67849500D01*
X101345930Y-67849501D01*
X101040457Y-67889717D01*
X100742837Y-67969464D01*
X100458173Y-68087376D01*
X100458162Y-68087381D01*
X100191325Y-68241441D01*
X99946884Y-68429007D01*
X99946877Y-68429013D01*
X99729013Y-68646877D01*
X99729007Y-68646884D01*
X99541441Y-68891325D01*
X99387381Y-69158162D01*
X99387376Y-69158173D01*
X99269465Y-69442835D01*
X99253765Y-69501429D01*
X99217399Y-69561089D01*
X99154552Y-69591618D01*
X99085177Y-69583323D01*
X99031299Y-69538837D01*
X99019429Y-69516787D01*
X98962779Y-69380021D01*
X98962772Y-69380006D01*
X98841519Y-69169990D01*
X98693889Y-68977594D01*
X98693883Y-68977587D01*
X98522412Y-68806116D01*
X98522405Y-68806110D01*
X98330009Y-68658480D01*
X98119993Y-68537227D01*
X98119978Y-68537220D01*
X97895939Y-68444421D01*
X97661687Y-68381653D01*
X97550000Y-68366948D01*
X97550000Y-69845879D01*
X97504182Y-69826901D01*
X97368944Y-69800000D01*
X97231056Y-69800000D01*
X97095818Y-69826901D01*
X97050000Y-69845879D01*
X97050000Y-68366948D01*
X97049999Y-68366948D01*
X96938312Y-68381653D01*
X96704060Y-68444421D01*
X96480021Y-68537220D01*
X96480006Y-68537227D01*
X96269990Y-68658480D01*
X96077594Y-68806110D01*
X96077587Y-68806116D01*
X95906116Y-68977587D01*
X95906110Y-68977594D01*
X95758480Y-69169990D01*
X95637227Y-69380006D01*
X95637220Y-69380021D01*
X95544421Y-69604060D01*
X95481653Y-69838312D01*
X95450001Y-70078735D01*
X95450000Y-70078751D01*
X94950000Y-70078751D01*
X94949998Y-70078735D01*
X94918346Y-69838312D01*
X94855578Y-69604060D01*
X94762779Y-69380021D01*
X94762772Y-69380006D01*
X94641519Y-69169990D01*
X94493889Y-68977594D01*
X94493883Y-68977587D01*
X94322412Y-68806116D01*
X94322405Y-68806110D01*
X94130009Y-68658480D01*
X93919993Y-68537227D01*
X93919978Y-68537220D01*
X93695939Y-68444421D01*
X93461687Y-68381653D01*
X93350000Y-68366948D01*
X93350000Y-69845879D01*
X93304182Y-69826901D01*
X93168944Y-69800000D01*
X93031056Y-69800000D01*
X92895818Y-69826901D01*
X92850000Y-69845879D01*
X92850000Y-68366948D01*
X92849999Y-68366948D01*
X92738312Y-68381653D01*
X92504060Y-68444421D01*
X92280021Y-68537220D01*
X92280006Y-68537227D01*
X92069990Y-68658480D01*
X91877594Y-68806110D01*
X91877587Y-68806116D01*
X91706116Y-68977587D01*
X91706110Y-68977594D01*
X91558480Y-69169990D01*
X91437227Y-69380006D01*
X91437222Y-69380016D01*
X91380570Y-69516788D01*
X91336729Y-69571191D01*
X91270435Y-69593256D01*
X91202735Y-69575977D01*
X91155125Y-69524839D01*
X91146236Y-69501434D01*
X91130535Y-69442836D01*
X91012622Y-69158170D01*
X91012620Y-69158167D01*
X91012618Y-69158162D01*
X90920450Y-68998524D01*
X90858562Y-68891330D01*
X90670991Y-68646883D01*
X90670986Y-68646877D01*
X90453122Y-68429013D01*
X90453115Y-68429007D01*
X90208674Y-68241441D01*
X90208673Y-68241440D01*
X90208670Y-68241438D01*
X90102280Y-68180014D01*
X89941837Y-68087381D01*
X89941826Y-68087376D01*
X89657162Y-67969464D01*
X89359542Y-67889717D01*
X89054069Y-67849501D01*
X89054066Y-67849500D01*
X89054060Y-67849500D01*
X88745940Y-67849500D01*
X88745934Y-67849500D01*
X88745930Y-67849501D01*
X88440457Y-67889717D01*
X88142837Y-67969464D01*
X87858173Y-68087376D01*
X87858162Y-68087381D01*
X87591325Y-68241441D01*
X87346884Y-68429007D01*
X87346877Y-68429013D01*
X87129013Y-68646877D01*
X87129007Y-68646884D01*
X86941443Y-68891322D01*
X86941439Y-68891327D01*
X86941438Y-68891330D01*
X86907385Y-68950310D01*
X86856819Y-68998524D01*
X86788212Y-69011746D01*
X86723348Y-68985778D01*
X86692614Y-68950310D01*
X86658562Y-68891330D01*
X86470991Y-68646883D01*
X86470986Y-68646877D01*
X86253122Y-68429013D01*
X86253115Y-68429007D01*
X86008674Y-68241441D01*
X86008673Y-68241440D01*
X86008670Y-68241438D01*
X85902280Y-68180014D01*
X85741837Y-68087381D01*
X85741826Y-68087376D01*
X85457162Y-67969464D01*
X85159542Y-67889717D01*
X84854069Y-67849501D01*
X84854066Y-67849500D01*
X84854060Y-67849500D01*
X84545940Y-67849500D01*
X84545934Y-67849500D01*
X84545930Y-67849501D01*
X84240457Y-67889717D01*
X83942837Y-67969464D01*
X83658173Y-68087376D01*
X83658162Y-68087381D01*
X83391325Y-68241441D01*
X83146884Y-68429007D01*
X83146877Y-68429013D01*
X82929013Y-68646877D01*
X82929007Y-68646884D01*
X82741441Y-68891325D01*
X82587381Y-69158162D01*
X82587376Y-69158173D01*
X82469464Y-69442837D01*
X82389717Y-69740457D01*
X82349501Y-70045930D01*
X82349500Y-70045946D01*
X81500500Y-70045946D01*
X81500500Y-67434108D01*
X81466392Y-67306814D01*
X81400500Y-67192686D01*
X81307314Y-67099500D01*
X81250250Y-67066554D01*
X81193187Y-67033608D01*
X81129539Y-67016554D01*
X81065892Y-66999500D01*
X80500000Y-66999500D01*
X80500000Y-65500000D01*
X80500000Y-63000000D01*
X109000000Y-63000000D01*
X109000000Y-84000000D01*
G37*
%TD.AperFunction*%
%TD*%
%TA.AperFunction,Conductor*%
%TO.N,/DCN*%
G36*
X241443039Y-28020185D02*
G01*
X241488794Y-28072989D01*
X241500000Y-28124500D01*
X241500000Y-41468100D01*
X241480315Y-41535139D01*
X241427511Y-41580894D01*
X241358353Y-41590838D01*
X241294797Y-41561813D01*
X241279053Y-41545413D01*
X241240825Y-41497477D01*
X241002522Y-41259174D01*
X240911594Y-41186662D01*
X240739039Y-41049054D01*
X240453686Y-40869754D01*
X240453683Y-40869752D01*
X240150054Y-40723532D01*
X239831965Y-40612227D01*
X239831953Y-40612223D01*
X239503397Y-40537233D01*
X239503381Y-40537231D01*
X239168508Y-40499500D01*
X239168504Y-40499500D01*
X238831496Y-40499500D01*
X238831491Y-40499500D01*
X238496618Y-40537231D01*
X238496602Y-40537233D01*
X238168046Y-40612223D01*
X238168034Y-40612227D01*
X237849945Y-40723532D01*
X237546316Y-40869752D01*
X237260962Y-41049053D01*
X236997477Y-41259174D01*
X236759174Y-41497477D01*
X236549053Y-41760962D01*
X236369752Y-42046316D01*
X236223532Y-42349945D01*
X236112227Y-42668034D01*
X236112226Y-42668036D01*
X236107448Y-42688971D01*
X236073338Y-42749949D01*
X236011676Y-42782805D01*
X235942038Y-42777109D01*
X235886536Y-42734668D01*
X235869515Y-42702330D01*
X235813337Y-42541782D01*
X235691507Y-42288799D01*
X235542115Y-42051043D01*
X235435810Y-41917741D01*
X234436289Y-42917261D01*
X234339033Y-42783398D01*
X234216602Y-42660967D01*
X234082736Y-42563709D01*
X235082257Y-41564187D01*
X234948956Y-41457884D01*
X234711200Y-41308492D01*
X234458217Y-41186662D01*
X234193180Y-41093922D01*
X234193178Y-41093921D01*
X233919424Y-41031439D01*
X233919412Y-41031437D01*
X233640401Y-41000000D01*
X233359598Y-41000000D01*
X233080587Y-41031437D01*
X233080575Y-41031439D01*
X232806821Y-41093921D01*
X232806819Y-41093922D01*
X232541782Y-41186662D01*
X232288799Y-41308492D01*
X232051043Y-41457884D01*
X231917741Y-41564187D01*
X232917263Y-42563709D01*
X232783398Y-42660967D01*
X232660967Y-42783398D01*
X232563709Y-42917263D01*
X231564187Y-41917741D01*
X231457884Y-42051043D01*
X231308492Y-42288799D01*
X231186662Y-42541782D01*
X231093922Y-42806819D01*
X231093921Y-42806821D01*
X231031439Y-43080575D01*
X231031437Y-43080587D01*
X231000000Y-43359598D01*
X231000000Y-43640401D01*
X231031437Y-43919412D01*
X231031439Y-43919424D01*
X231093921Y-44193178D01*
X231093922Y-44193180D01*
X231186662Y-44458217D01*
X231308492Y-44711200D01*
X231457884Y-44948956D01*
X231564187Y-45082257D01*
X232563708Y-44082736D01*
X232660967Y-44216602D01*
X232783398Y-44339033D01*
X232917262Y-44436290D01*
X231917741Y-45435810D01*
X231917741Y-45435811D01*
X232051043Y-45542115D01*
X232288799Y-45691507D01*
X232541782Y-45813337D01*
X232806819Y-45906077D01*
X232806821Y-45906078D01*
X233080575Y-45968560D01*
X233080587Y-45968562D01*
X233359598Y-45999999D01*
X233359600Y-46000000D01*
X233640400Y-46000000D01*
X233640401Y-45999999D01*
X233919412Y-45968562D01*
X233919424Y-45968560D01*
X234193178Y-45906078D01*
X234193180Y-45906077D01*
X234458217Y-45813337D01*
X234711200Y-45691507D01*
X234948956Y-45542116D01*
X235082257Y-45435810D01*
X234082737Y-44436290D01*
X234216602Y-44339033D01*
X234339033Y-44216602D01*
X234436290Y-44082737D01*
X235435810Y-45082257D01*
X235542116Y-44948956D01*
X235691507Y-44711200D01*
X235813337Y-44458217D01*
X235869515Y-44297669D01*
X235910237Y-44240893D01*
X235975189Y-44215145D01*
X236043751Y-44228601D01*
X236094154Y-44276988D01*
X236107448Y-44311029D01*
X236112225Y-44331960D01*
X236112227Y-44331965D01*
X236223532Y-44650054D01*
X236369752Y-44953683D01*
X236369754Y-44953686D01*
X236549054Y-45239039D01*
X236759175Y-45502523D01*
X236997477Y-45740825D01*
X237260961Y-45950946D01*
X237546314Y-46130246D01*
X237849949Y-46276469D01*
X238029227Y-46339201D01*
X238168034Y-46387772D01*
X238168046Y-46387776D01*
X238496606Y-46462767D01*
X238831492Y-46500499D01*
X238831493Y-46500500D01*
X238831496Y-46500500D01*
X239168507Y-46500500D01*
X239168507Y-46500499D01*
X239503394Y-46462767D01*
X239831954Y-46387776D01*
X240150051Y-46276469D01*
X240453686Y-46130246D01*
X240739039Y-45950946D01*
X241002523Y-45740825D01*
X241240825Y-45502523D01*
X241279053Y-45454586D01*
X241336240Y-45414446D01*
X241406052Y-45411596D01*
X241466322Y-45446941D01*
X241497916Y-45509259D01*
X241500000Y-45531899D01*
X241500000Y-96344690D01*
X241480315Y-96411729D01*
X241427511Y-96457484D01*
X241375947Y-96468690D01*
X79124447Y-96399075D01*
X79057416Y-96379362D01*
X79011684Y-96326538D01*
X79000500Y-96275075D01*
X79000500Y-83624500D01*
X79020185Y-83557461D01*
X79072989Y-83511706D01*
X79124500Y-83500500D01*
X80500000Y-83500500D01*
X80500000Y-84000000D01*
X109000000Y-84000000D01*
X109000000Y-76026405D01*
X171750000Y-76026405D01*
X171750000Y-76288594D01*
X171784220Y-76548509D01*
X171784222Y-76548520D01*
X171852075Y-76801755D01*
X171952404Y-77043971D01*
X171952409Y-77043982D01*
X172083488Y-77271016D01*
X172083494Y-77271024D01*
X172170080Y-77383865D01*
X173072421Y-76481524D01*
X173085359Y-76512758D01*
X173167437Y-76635597D01*
X173271903Y-76740063D01*
X173394742Y-76822141D01*
X173425974Y-76835077D01*
X172523633Y-77737417D01*
X172523633Y-77737418D01*
X172636475Y-77824005D01*
X172636483Y-77824011D01*
X172863517Y-77955090D01*
X172863528Y-77955095D01*
X173105744Y-78055424D01*
X173358979Y-78123277D01*
X173358990Y-78123279D01*
X173618905Y-78157499D01*
X173618920Y-78157500D01*
X173881080Y-78157500D01*
X173881094Y-78157499D01*
X174141009Y-78123279D01*
X174141020Y-78123277D01*
X174394255Y-78055424D01*
X174636471Y-77955095D01*
X174636482Y-77955090D01*
X174689331Y-77924578D01*
X174863516Y-77824011D01*
X174863534Y-77823999D01*
X174976365Y-77737419D01*
X174976365Y-77737417D01*
X174074025Y-76835078D01*
X174105258Y-76822141D01*
X174228097Y-76740063D01*
X174332563Y-76635597D01*
X174414641Y-76512758D01*
X174427577Y-76481525D01*
X175329917Y-77383865D01*
X175329919Y-77383865D01*
X175416499Y-77271034D01*
X175416511Y-77271016D01*
X175547590Y-77043982D01*
X175547595Y-77043971D01*
X175647924Y-76801755D01*
X175715777Y-76548520D01*
X175715779Y-76548509D01*
X175739426Y-76368905D01*
X176000000Y-76368905D01*
X176000000Y-76631094D01*
X176034220Y-76891009D01*
X176034222Y-76891020D01*
X176102075Y-77144255D01*
X176202404Y-77386471D01*
X176202409Y-77386482D01*
X176333488Y-77613516D01*
X176333494Y-77613524D01*
X176420080Y-77726365D01*
X177322421Y-76824024D01*
X177335359Y-76855258D01*
X177417437Y-76978097D01*
X177521903Y-77082563D01*
X177644742Y-77164641D01*
X177675974Y-77177577D01*
X176773633Y-78079917D01*
X176773633Y-78079918D01*
X176886475Y-78166505D01*
X176886483Y-78166511D01*
X177113517Y-78297590D01*
X177113528Y-78297595D01*
X177355744Y-78397924D01*
X177608979Y-78465777D01*
X177608990Y-78465779D01*
X177868905Y-78499999D01*
X177868920Y-78500000D01*
X178131080Y-78500000D01*
X178131094Y-78499999D01*
X178391009Y-78465779D01*
X178391020Y-78465777D01*
X178644255Y-78397924D01*
X178886471Y-78297595D01*
X178886482Y-78297590D01*
X179113516Y-78166511D01*
X179113534Y-78166499D01*
X179226365Y-78079919D01*
X179226365Y-78079917D01*
X178324025Y-77177578D01*
X178355258Y-77164641D01*
X178478097Y-77082563D01*
X178582563Y-76978097D01*
X178664641Y-76855258D01*
X178677578Y-76824025D01*
X179579917Y-77726365D01*
X179579918Y-77726365D01*
X179592752Y-77709641D01*
X179649180Y-77668438D01*
X179718926Y-77664283D01*
X179779846Y-77698495D01*
X179788075Y-77707815D01*
X179882577Y-77826318D01*
X179882584Y-77826325D01*
X180081175Y-78024916D01*
X180300752Y-78200023D01*
X180538555Y-78349445D01*
X180791592Y-78471301D01*
X180960873Y-78530535D01*
X181056670Y-78564056D01*
X181056682Y-78564060D01*
X181330491Y-78626555D01*
X181330497Y-78626555D01*
X181330505Y-78626557D01*
X181516547Y-78647518D01*
X181609569Y-78657999D01*
X181609572Y-78658000D01*
X181609575Y-78658000D01*
X181890428Y-78658000D01*
X181890429Y-78657999D01*
X182033055Y-78641929D01*
X182169494Y-78626557D01*
X182169499Y-78626556D01*
X182169509Y-78626555D01*
X182443318Y-78564060D01*
X182708408Y-78471301D01*
X182961445Y-78349445D01*
X183199248Y-78200023D01*
X183418825Y-78024916D01*
X183617416Y-77826325D01*
X183655454Y-77778626D01*
X183712640Y-77738487D01*
X183782451Y-77735637D01*
X183842722Y-77770981D01*
X183857394Y-77789968D01*
X183880239Y-77826325D01*
X183957477Y-77949248D01*
X184054560Y-78070986D01*
X184130738Y-78166511D01*
X184132584Y-78168825D01*
X184331175Y-78367416D01*
X184550752Y-78542523D01*
X184788555Y-78691945D01*
X185041592Y-78813801D01*
X185240680Y-78883465D01*
X185306670Y-78906556D01*
X185306682Y-78906560D01*
X185580491Y-78969055D01*
X185580497Y-78969055D01*
X185580505Y-78969057D01*
X185766547Y-78990018D01*
X185859569Y-79000499D01*
X185859572Y-79000500D01*
X185859575Y-79000500D01*
X186140428Y-79000500D01*
X186140429Y-79000499D01*
X186283055Y-78984429D01*
X186419494Y-78969057D01*
X186419499Y-78969056D01*
X186419509Y-78969055D01*
X186693318Y-78906560D01*
X186958408Y-78813801D01*
X187211445Y-78691945D01*
X187449248Y-78542523D01*
X187668825Y-78367416D01*
X187867416Y-78168825D01*
X188042523Y-77949248D01*
X188191945Y-77711445D01*
X188313801Y-77458408D01*
X188406560Y-77193318D01*
X188469055Y-76919509D01*
X188469375Y-76916675D01*
X188487079Y-76759542D01*
X188500500Y-76640425D01*
X188500500Y-76359575D01*
X188477732Y-76157498D01*
X188469057Y-76080505D01*
X188469054Y-76080487D01*
X188434947Y-75931056D01*
X188406560Y-75806682D01*
X188405006Y-75802242D01*
X188338972Y-75613528D01*
X188313801Y-75541592D01*
X188191945Y-75288555D01*
X188042523Y-75050752D01*
X187867416Y-74831175D01*
X187668825Y-74632584D01*
X187449248Y-74457477D01*
X187211445Y-74308055D01*
X187211442Y-74308053D01*
X186958411Y-74186200D01*
X186693329Y-74093443D01*
X186693317Y-74093439D01*
X186419512Y-74030945D01*
X186419494Y-74030942D01*
X186140431Y-73999500D01*
X186140425Y-73999500D01*
X185859575Y-73999500D01*
X185859568Y-73999500D01*
X185580505Y-74030942D01*
X185580487Y-74030945D01*
X185306682Y-74093439D01*
X185306670Y-74093443D01*
X185041588Y-74186200D01*
X184788557Y-74308053D01*
X184550753Y-74457476D01*
X184331175Y-74632583D01*
X184132582Y-74831176D01*
X184094545Y-74878873D01*
X184037357Y-74919013D01*
X183967545Y-74921862D01*
X183907275Y-74886516D01*
X183892605Y-74867531D01*
X183871214Y-74833488D01*
X183792523Y-74708252D01*
X183617416Y-74488675D01*
X183418825Y-74290084D01*
X183199248Y-74114977D01*
X182961445Y-73965555D01*
X182961442Y-73965553D01*
X182708411Y-73843700D01*
X182443329Y-73750943D01*
X182443317Y-73750939D01*
X182169512Y-73688445D01*
X182169494Y-73688442D01*
X181890431Y-73657000D01*
X181890425Y-73657000D01*
X181609575Y-73657000D01*
X181609568Y-73657000D01*
X181330505Y-73688442D01*
X181330487Y-73688445D01*
X181056682Y-73750939D01*
X181056670Y-73750943D01*
X180791588Y-73843700D01*
X180538557Y-73965553D01*
X180300753Y-74114976D01*
X180081175Y-74290083D01*
X179882583Y-74488675D01*
X179707476Y-74708253D01*
X179558053Y-74946057D01*
X179436200Y-75199088D01*
X179343443Y-75464170D01*
X179343437Y-75464189D01*
X179337803Y-75488873D01*
X179304594Y-75548958D01*
X178677577Y-76175974D01*
X178664641Y-76144742D01*
X178582563Y-76021903D01*
X178478097Y-75917437D01*
X178355258Y-75835359D01*
X178324023Y-75822421D01*
X179226365Y-74920080D01*
X179113524Y-74833494D01*
X179113516Y-74833488D01*
X178886482Y-74702409D01*
X178886471Y-74702404D01*
X178644255Y-74602075D01*
X178391020Y-74534222D01*
X178391009Y-74534220D01*
X178131094Y-74500000D01*
X177868905Y-74500000D01*
X177608990Y-74534220D01*
X177608979Y-74534222D01*
X177355744Y-74602075D01*
X177113528Y-74702404D01*
X177113517Y-74702409D01*
X176886471Y-74833496D01*
X176773633Y-74920079D01*
X176773633Y-74920080D01*
X177675974Y-75822421D01*
X177644742Y-75835359D01*
X177521903Y-75917437D01*
X177417437Y-76021903D01*
X177335359Y-76144742D01*
X177322421Y-76175974D01*
X176420080Y-75273633D01*
X176420079Y-75273633D01*
X176333496Y-75386471D01*
X176202409Y-75613517D01*
X176202404Y-75613528D01*
X176102075Y-75855744D01*
X176034222Y-76108979D01*
X176034220Y-76108990D01*
X176000000Y-76368905D01*
X175739426Y-76368905D01*
X175742090Y-76348668D01*
X175749999Y-76288594D01*
X175750000Y-76288580D01*
X175750000Y-76026419D01*
X175749999Y-76026405D01*
X175715779Y-75766490D01*
X175715777Y-75766479D01*
X175647924Y-75513244D01*
X175547595Y-75271028D01*
X175547590Y-75271017D01*
X175416511Y-75043983D01*
X175416501Y-75043969D01*
X175416151Y-75043512D01*
X175416150Y-75043509D01*
X175329919Y-74931133D01*
X175329917Y-74931133D01*
X174427577Y-75833473D01*
X174414641Y-75802242D01*
X174332563Y-75679403D01*
X174228097Y-75574937D01*
X174105258Y-75492859D01*
X174074023Y-75479921D01*
X174976365Y-74577580D01*
X174863524Y-74490994D01*
X174863516Y-74490988D01*
X174636482Y-74359909D01*
X174636471Y-74359904D01*
X174394255Y-74259575D01*
X174141020Y-74191722D01*
X174141009Y-74191720D01*
X173881094Y-74157500D01*
X173618905Y-74157500D01*
X173358990Y-74191720D01*
X173358979Y-74191722D01*
X173105744Y-74259575D01*
X172863528Y-74359904D01*
X172863517Y-74359909D01*
X172636471Y-74490996D01*
X172523633Y-74577579D01*
X172523633Y-74577580D01*
X173425974Y-75479921D01*
X173394742Y-75492859D01*
X173271903Y-75574937D01*
X173167437Y-75679403D01*
X173085359Y-75802242D01*
X173072421Y-75833474D01*
X172170080Y-74931133D01*
X172170079Y-74931133D01*
X172083496Y-75043971D01*
X171952409Y-75271017D01*
X171952404Y-75271028D01*
X171852075Y-75513244D01*
X171784222Y-75766479D01*
X171784220Y-75766490D01*
X171750000Y-76026405D01*
X109000000Y-76026405D01*
X109000000Y-63803499D01*
X160999500Y-63803499D01*
X160999500Y-64196500D01*
X161033751Y-64587995D01*
X161033751Y-64587999D01*
X161101991Y-64975005D01*
X161101993Y-64975015D01*
X161203707Y-65354616D01*
X161203708Y-65354618D01*
X161203708Y-65354619D01*
X161338124Y-65723921D01*
X161504195Y-66080062D01*
X161504207Y-66080086D01*
X161700695Y-66420412D01*
X161700704Y-66420427D01*
X161926115Y-66742347D01*
X162118793Y-66971971D01*
X162178722Y-67043391D01*
X162456609Y-67321278D01*
X162563738Y-67411170D01*
X162757652Y-67573884D01*
X162757658Y-67573888D01*
X162757659Y-67573889D01*
X163079579Y-67799300D01*
X163419920Y-67995796D01*
X163419934Y-67995802D01*
X163419937Y-67995804D01*
X163776078Y-68161875D01*
X163776083Y-68161876D01*
X163776092Y-68161881D01*
X164145384Y-68296293D01*
X164524985Y-68398007D01*
X164912007Y-68466249D01*
X165303502Y-68500499D01*
X165303503Y-68500500D01*
X165303504Y-68500500D01*
X165696497Y-68500500D01*
X165696497Y-68500499D01*
X166087993Y-68466249D01*
X166475015Y-68398007D01*
X166854616Y-68296293D01*
X167223908Y-68161881D01*
X167580080Y-67995796D01*
X167920421Y-67799300D01*
X168242341Y-67573889D01*
X168543391Y-67321278D01*
X168821278Y-67043391D01*
X169073889Y-66742341D01*
X169270190Y-66461995D01*
X186199500Y-66461995D01*
X186199500Y-66698004D01*
X186199501Y-66698020D01*
X186222866Y-66875500D01*
X186230307Y-66932014D01*
X186260151Y-67043393D01*
X186291394Y-67159993D01*
X186381714Y-67378045D01*
X186381719Y-67378056D01*
X186452677Y-67500957D01*
X186499727Y-67582450D01*
X186499729Y-67582453D01*
X186499730Y-67582454D01*
X186643406Y-67769697D01*
X186643412Y-67769704D01*
X186810295Y-67936587D01*
X186810301Y-67936592D01*
X186997550Y-68080273D01*
X187128918Y-68156118D01*
X187201943Y-68198280D01*
X187201948Y-68198282D01*
X187201951Y-68198284D01*
X187420007Y-68288606D01*
X187647986Y-68349693D01*
X187881989Y-68380500D01*
X187881996Y-68380500D01*
X188118004Y-68380500D01*
X188118011Y-68380500D01*
X188352014Y-68349693D01*
X188579993Y-68288606D01*
X188798049Y-68198284D01*
X189002450Y-68080273D01*
X189189699Y-67936592D01*
X189356592Y-67769699D01*
X189500273Y-67582450D01*
X189618284Y-67378049D01*
X189708606Y-67159993D01*
X189769693Y-66932014D01*
X189800500Y-66698011D01*
X189800500Y-66461989D01*
X189769693Y-66227986D01*
X189708606Y-66000007D01*
X189618284Y-65781951D01*
X189618282Y-65781948D01*
X189618280Y-65781943D01*
X189576118Y-65708918D01*
X189500273Y-65577550D01*
X189356592Y-65390301D01*
X189356587Y-65390295D01*
X189189704Y-65223412D01*
X189189697Y-65223406D01*
X189002454Y-65079730D01*
X189002453Y-65079729D01*
X189002450Y-65079727D01*
X188920957Y-65032677D01*
X188798056Y-64961719D01*
X188798045Y-64961714D01*
X188579993Y-64871394D01*
X188352010Y-64810306D01*
X188118020Y-64779501D01*
X188118017Y-64779500D01*
X188118011Y-64779500D01*
X187881989Y-64779500D01*
X187881983Y-64779500D01*
X187881979Y-64779501D01*
X187647989Y-64810306D01*
X187420006Y-64871394D01*
X187201954Y-64961714D01*
X187201943Y-64961719D01*
X186997545Y-65079730D01*
X186810302Y-65223406D01*
X186810295Y-65223412D01*
X186643412Y-65390295D01*
X186643406Y-65390302D01*
X186499730Y-65577545D01*
X186381719Y-65781943D01*
X186381714Y-65781954D01*
X186291394Y-66000006D01*
X186230306Y-66227989D01*
X186199501Y-66461979D01*
X186199500Y-66461995D01*
X169270190Y-66461995D01*
X169299300Y-66420421D01*
X169307840Y-66405627D01*
X169313441Y-66395929D01*
X169410402Y-66227986D01*
X169495796Y-66080080D01*
X169661881Y-65723908D01*
X169796293Y-65354616D01*
X169898007Y-64975015D01*
X169966249Y-64587993D01*
X170000500Y-64196496D01*
X170000500Y-63803504D01*
X169966249Y-63412007D01*
X169898007Y-63024985D01*
X169796293Y-62645384D01*
X169661881Y-62276092D01*
X169661876Y-62276083D01*
X169661875Y-62276078D01*
X169495804Y-61919937D01*
X169495792Y-61919913D01*
X169483455Y-61898546D01*
X169299300Y-61579579D01*
X169073889Y-61257659D01*
X169073888Y-61257658D01*
X169073884Y-61257652D01*
X168911170Y-61063738D01*
X168821278Y-60956609D01*
X168543391Y-60678722D01*
X168418450Y-60573884D01*
X168332928Y-60502122D01*
X168294226Y-60443951D01*
X168293118Y-60374090D01*
X168329955Y-60314720D01*
X168370219Y-60290613D01*
X168723908Y-60161881D01*
X169080080Y-59995796D01*
X169420421Y-59799300D01*
X169742341Y-59573889D01*
X170043391Y-59321278D01*
X170321278Y-59043391D01*
X170573889Y-58742341D01*
X170799300Y-58420421D01*
X170995796Y-58080080D01*
X171161881Y-57723908D01*
X171296293Y-57354616D01*
X171398007Y-56975015D01*
X171466249Y-56587993D01*
X171500500Y-56196496D01*
X171500500Y-56052155D01*
X172560000Y-56052155D01*
X172560000Y-56750000D01*
X173584722Y-56750000D01*
X173540667Y-56826306D01*
X173510000Y-56940756D01*
X173510000Y-57059244D01*
X173540667Y-57173694D01*
X173584722Y-57250000D01*
X172560000Y-57250000D01*
X172560000Y-57947844D01*
X172566401Y-58007372D01*
X172566403Y-58007379D01*
X172616645Y-58142086D01*
X172616649Y-58142093D01*
X172702809Y-58257187D01*
X172702812Y-58257190D01*
X172817906Y-58343350D01*
X172817913Y-58343354D01*
X172952620Y-58393596D01*
X172952627Y-58393598D01*
X173012155Y-58399999D01*
X173012172Y-58400000D01*
X173710000Y-58400000D01*
X173710000Y-57375277D01*
X173786306Y-57419333D01*
X173900756Y-57450000D01*
X174019244Y-57450000D01*
X174133694Y-57419333D01*
X174210000Y-57375277D01*
X174210000Y-58400000D01*
X174907828Y-58400000D01*
X174907844Y-58399999D01*
X174967372Y-58393598D01*
X174967376Y-58393597D01*
X175066425Y-58356654D01*
X175136117Y-58351670D01*
X175197440Y-58385154D01*
X175197440Y-58385155D01*
X175244218Y-58431933D01*
X175244225Y-58431939D01*
X175441873Y-58583599D01*
X175657623Y-58708162D01*
X175657638Y-58708169D01*
X175740137Y-58742341D01*
X175887793Y-58803502D01*
X176128435Y-58867982D01*
X176375435Y-58900500D01*
X176375442Y-58900500D01*
X176624558Y-58900500D01*
X176624565Y-58900500D01*
X176871565Y-58867982D01*
X177112207Y-58803502D01*
X177342373Y-58708164D01*
X177558127Y-58583599D01*
X177755776Y-58431938D01*
X177931938Y-58255776D01*
X178083599Y-58058127D01*
X178208164Y-57842373D01*
X178303502Y-57612207D01*
X178367982Y-57371565D01*
X178400500Y-57124565D01*
X178400500Y-56875435D01*
X178367982Y-56628435D01*
X178303502Y-56387793D01*
X178267963Y-56301995D01*
X186199500Y-56301995D01*
X186199500Y-56538004D01*
X186199501Y-56538020D01*
X186227408Y-56750000D01*
X186230307Y-56772014D01*
X186238745Y-56803504D01*
X186291394Y-56999993D01*
X186381714Y-57218045D01*
X186381719Y-57218056D01*
X186452677Y-57340957D01*
X186499727Y-57422450D01*
X186499729Y-57422453D01*
X186499730Y-57422454D01*
X186643406Y-57609697D01*
X186643412Y-57609704D01*
X186810295Y-57776587D01*
X186810302Y-57776593D01*
X186920306Y-57861001D01*
X186997550Y-57920273D01*
X187092349Y-57975005D01*
X187201943Y-58038280D01*
X187201948Y-58038282D01*
X187201951Y-58038284D01*
X187420007Y-58128606D01*
X187647986Y-58189693D01*
X187881989Y-58220500D01*
X187881996Y-58220500D01*
X188118004Y-58220500D01*
X188118011Y-58220500D01*
X188352014Y-58189693D01*
X188579993Y-58128606D01*
X188798049Y-58038284D01*
X189002450Y-57920273D01*
X189189699Y-57776592D01*
X189356592Y-57609699D01*
X189500273Y-57422450D01*
X189618284Y-57218049D01*
X189708606Y-56999993D01*
X189769693Y-56772014D01*
X189800500Y-56538011D01*
X189800500Y-56301989D01*
X189769693Y-56067986D01*
X189708606Y-55840007D01*
X189618284Y-55621951D01*
X189618282Y-55621948D01*
X189618280Y-55621943D01*
X189535617Y-55478768D01*
X189500273Y-55417550D01*
X189356592Y-55230301D01*
X189356587Y-55230295D01*
X189189704Y-55063412D01*
X189189697Y-55063406D01*
X189002454Y-54919730D01*
X189002453Y-54919729D01*
X189002450Y-54919727D01*
X188920957Y-54872677D01*
X188798056Y-54801719D01*
X188798045Y-54801714D01*
X188579993Y-54711394D01*
X188352010Y-54650306D01*
X188118020Y-54619501D01*
X188118017Y-54619500D01*
X188118011Y-54619500D01*
X187881989Y-54619500D01*
X187881983Y-54619500D01*
X187881979Y-54619501D01*
X187647989Y-54650306D01*
X187420006Y-54711394D01*
X187201954Y-54801714D01*
X187201943Y-54801719D01*
X186997545Y-54919730D01*
X186810302Y-55063406D01*
X186810295Y-55063412D01*
X186643412Y-55230295D01*
X186643406Y-55230302D01*
X186499730Y-55417545D01*
X186381719Y-55621943D01*
X186381714Y-55621954D01*
X186291394Y-55840006D01*
X186230306Y-56067989D01*
X186199501Y-56301979D01*
X186199500Y-56301995D01*
X178267963Y-56301995D01*
X178208164Y-56157627D01*
X178131583Y-56024985D01*
X178083602Y-55941878D01*
X178083601Y-55941877D01*
X178083599Y-55941873D01*
X178054524Y-55903981D01*
X178042419Y-55884795D01*
X178028722Y-55857913D01*
X178021232Y-55843212D01*
X178021230Y-55843209D01*
X178021229Y-55843207D01*
X177987142Y-55796291D01*
X177919414Y-55703072D01*
X177796928Y-55580586D01*
X177656788Y-55478768D01*
X177615197Y-55457576D01*
X177596008Y-55445468D01*
X177558127Y-55416400D01*
X177342376Y-55291837D01*
X177342361Y-55291830D01*
X177112207Y-55196498D01*
X176871561Y-55132017D01*
X176624575Y-55099501D01*
X176624570Y-55099500D01*
X176624565Y-55099500D01*
X176375435Y-55099500D01*
X176375429Y-55099500D01*
X176375424Y-55099501D01*
X176128438Y-55132017D01*
X175887792Y-55196498D01*
X175657638Y-55291830D01*
X175657623Y-55291837D01*
X175441873Y-55416400D01*
X175244225Y-55568060D01*
X175244218Y-55568066D01*
X175197439Y-55614845D01*
X175136116Y-55648329D01*
X175066426Y-55643345D01*
X174967379Y-55606403D01*
X174967372Y-55606401D01*
X174907844Y-55600000D01*
X174210000Y-55600000D01*
X174210000Y-56624722D01*
X174133694Y-56580667D01*
X174019244Y-56550000D01*
X173900756Y-56550000D01*
X173786306Y-56580667D01*
X173710000Y-56624722D01*
X173710000Y-55600000D01*
X173012155Y-55600000D01*
X172952627Y-55606401D01*
X172952620Y-55606403D01*
X172817913Y-55656645D01*
X172817906Y-55656649D01*
X172702812Y-55742809D01*
X172702809Y-55742812D01*
X172616649Y-55857906D01*
X172616645Y-55857913D01*
X172566403Y-55992620D01*
X172566401Y-55992627D01*
X172560000Y-56052155D01*
X171500500Y-56052155D01*
X171500500Y-55803504D01*
X171466249Y-55412007D01*
X171398007Y-55024985D01*
X171296293Y-54645384D01*
X171161881Y-54276092D01*
X171161876Y-54276083D01*
X171161875Y-54276078D01*
X170995804Y-53919937D01*
X170995792Y-53919913D01*
X170856540Y-53678722D01*
X170799300Y-53579579D01*
X170573889Y-53257659D01*
X170573888Y-53257658D01*
X170573884Y-53257652D01*
X170321275Y-52956606D01*
X170043393Y-52678724D01*
X169742347Y-52426115D01*
X169420427Y-52200704D01*
X169420424Y-52200702D01*
X169420421Y-52200700D01*
X169225217Y-52087999D01*
X169080086Y-52004207D01*
X169080062Y-52004195D01*
X168723921Y-51838124D01*
X168723910Y-51838120D01*
X168723908Y-51838119D01*
X168354616Y-51703707D01*
X168113960Y-51639223D01*
X167975016Y-51601993D01*
X167975005Y-51601991D01*
X167587997Y-51533751D01*
X167196500Y-51499500D01*
X167196496Y-51499500D01*
X166803504Y-51499500D01*
X166803499Y-51499500D01*
X166412004Y-51533751D01*
X166412000Y-51533751D01*
X166024994Y-51601991D01*
X166024983Y-51601993D01*
X165821555Y-51656502D01*
X165645384Y-51703707D01*
X165645381Y-51703708D01*
X165645380Y-51703708D01*
X165276078Y-51838124D01*
X164919937Y-52004195D01*
X164919913Y-52004207D01*
X164579587Y-52200695D01*
X164579572Y-52200704D01*
X164257652Y-52426115D01*
X163956606Y-52678724D01*
X163678724Y-52956606D01*
X163426115Y-53257652D01*
X163200704Y-53579572D01*
X163200695Y-53579587D01*
X163004207Y-53919913D01*
X163004195Y-53919937D01*
X162838124Y-54276078D01*
X162713128Y-54619501D01*
X162703707Y-54645384D01*
X162702388Y-54650307D01*
X162601993Y-55024983D01*
X162601991Y-55024994D01*
X162533751Y-55412000D01*
X162533751Y-55412004D01*
X162499500Y-55803499D01*
X162499500Y-56196500D01*
X162533751Y-56587995D01*
X162533751Y-56587999D01*
X162595952Y-56940756D01*
X162601993Y-56975015D01*
X162703707Y-57354616D01*
X162703708Y-57354618D01*
X162703708Y-57354619D01*
X162709876Y-57371565D01*
X162796549Y-57609697D01*
X162838124Y-57723921D01*
X163004195Y-58080062D01*
X163004207Y-58080086D01*
X163142320Y-58319305D01*
X163188909Y-58399999D01*
X163200695Y-58420412D01*
X163200704Y-58420427D01*
X163426115Y-58742347D01*
X163558822Y-58900500D01*
X163678722Y-59043391D01*
X163956609Y-59321278D01*
X164056439Y-59405045D01*
X164167071Y-59497877D01*
X164205773Y-59556048D01*
X164206881Y-59625909D01*
X164170044Y-59685279D01*
X164129776Y-59709388D01*
X163776078Y-59838124D01*
X163419937Y-60004195D01*
X163419913Y-60004207D01*
X163079587Y-60200695D01*
X163079572Y-60200704D01*
X162757652Y-60426115D01*
X162456606Y-60678724D01*
X162178724Y-60956606D01*
X161926115Y-61257652D01*
X161700704Y-61579572D01*
X161700695Y-61579587D01*
X161504207Y-61919913D01*
X161504195Y-61919937D01*
X161338124Y-62276078D01*
X161203708Y-62645380D01*
X161203708Y-62645382D01*
X161101993Y-63024983D01*
X161101991Y-63024994D01*
X161033751Y-63412000D01*
X161033751Y-63412004D01*
X160999500Y-63803499D01*
X109000000Y-63803499D01*
X109000000Y-63000000D01*
X80500000Y-63000000D01*
X80500000Y-65500000D01*
X80500000Y-66999500D01*
X79124500Y-66999500D01*
X79057461Y-66979815D01*
X79011706Y-66927011D01*
X79000500Y-66875500D01*
X79000500Y-59527783D01*
X79020185Y-59460744D01*
X79072989Y-59414989D01*
X79142147Y-59405045D01*
X79205703Y-59434070D01*
X79226074Y-59456659D01*
X79254935Y-59497877D01*
X79426111Y-59742342D01*
X79506478Y-59838119D01*
X79678722Y-60043391D01*
X79956609Y-60321278D01*
X79995581Y-60353979D01*
X80257652Y-60573884D01*
X80257658Y-60573888D01*
X80257659Y-60573889D01*
X80579579Y-60799300D01*
X80919920Y-60995796D01*
X80919934Y-60995802D01*
X80919937Y-60995804D01*
X81276078Y-61161875D01*
X81276083Y-61161876D01*
X81276092Y-61161881D01*
X81645384Y-61296293D01*
X82024985Y-61398007D01*
X82412007Y-61466249D01*
X82803502Y-61500499D01*
X82803503Y-61500500D01*
X82803504Y-61500500D01*
X83196497Y-61500500D01*
X83196497Y-61500499D01*
X83587993Y-61466249D01*
X83975015Y-61398007D01*
X84354616Y-61296293D01*
X84723908Y-61161881D01*
X85080080Y-60995796D01*
X85420421Y-60799300D01*
X85742341Y-60573889D01*
X86043391Y-60321278D01*
X86321278Y-60043391D01*
X86573889Y-59742341D01*
X86799300Y-59420421D01*
X86995796Y-59080080D01*
X87161881Y-58723908D01*
X87296293Y-58354616D01*
X87398007Y-57975015D01*
X87466249Y-57587993D01*
X87500500Y-57196496D01*
X87500500Y-56803504D01*
X87466249Y-56412007D01*
X87461979Y-56387793D01*
X87446780Y-56301592D01*
X87398007Y-56024985D01*
X87296293Y-55645384D01*
X87161881Y-55276092D01*
X87161876Y-55276083D01*
X87161875Y-55276078D01*
X86995804Y-54919937D01*
X86995792Y-54919913D01*
X86938843Y-54821275D01*
X86799300Y-54579579D01*
X86573889Y-54257659D01*
X86573888Y-54257658D01*
X86573884Y-54257652D01*
X86321275Y-53956606D01*
X86043393Y-53678724D01*
X85742347Y-53426115D01*
X85420427Y-53200704D01*
X85420424Y-53200702D01*
X85420421Y-53200700D01*
X85319305Y-53142320D01*
X85080086Y-53004207D01*
X85080062Y-53004195D01*
X84723921Y-52838124D01*
X84723910Y-52838120D01*
X84723908Y-52838119D01*
X84354616Y-52703707D01*
X84113960Y-52639223D01*
X83975016Y-52601993D01*
X83975005Y-52601991D01*
X83587997Y-52533751D01*
X83196500Y-52499500D01*
X83196496Y-52499500D01*
X82803504Y-52499500D01*
X82803499Y-52499500D01*
X82412004Y-52533751D01*
X82412000Y-52533751D01*
X82024994Y-52601991D01*
X82024983Y-52601993D01*
X81821555Y-52656502D01*
X81645384Y-52703707D01*
X81645381Y-52703708D01*
X81645380Y-52703708D01*
X81276078Y-52838124D01*
X80919937Y-53004195D01*
X80919913Y-53004207D01*
X80579587Y-53200695D01*
X80579572Y-53200704D01*
X80257652Y-53426115D01*
X79956606Y-53678724D01*
X79678724Y-53956606D01*
X79426115Y-54257652D01*
X79226075Y-54543340D01*
X79171498Y-54586964D01*
X79101999Y-54594157D01*
X79039645Y-54562635D01*
X79004231Y-54502405D01*
X79000500Y-54472216D01*
X79000500Y-52003750D01*
X79000726Y-51996263D01*
X79004486Y-51934108D01*
X79018271Y-51706201D01*
X79020076Y-51691340D01*
X79036450Y-51601993D01*
X79071780Y-51409197D01*
X79075364Y-51394663D01*
X79160696Y-51120822D01*
X79165998Y-51106841D01*
X79283731Y-50845249D01*
X79290676Y-50832016D01*
X79439080Y-50586526D01*
X79447567Y-50574230D01*
X79624480Y-50348417D01*
X79634395Y-50337226D01*
X79837226Y-50134395D01*
X79848417Y-50124480D01*
X80074230Y-49947567D01*
X80086526Y-49939080D01*
X80332016Y-49790676D01*
X80345249Y-49783731D01*
X80606841Y-49665998D01*
X80620822Y-49660696D01*
X80894668Y-49575362D01*
X80909197Y-49571780D01*
X81191344Y-49520075D01*
X81206201Y-49518271D01*
X81496264Y-49500726D01*
X81503751Y-49500500D01*
X86696497Y-49500500D01*
X86696497Y-49500499D01*
X87087993Y-49466249D01*
X87283373Y-49431798D01*
X87352808Y-49439542D01*
X87407038Y-49483598D01*
X87428840Y-49549979D01*
X87417284Y-49606318D01*
X87338124Y-49776078D01*
X87207704Y-50134403D01*
X87203707Y-50145384D01*
X87156502Y-50321555D01*
X87101993Y-50524983D01*
X87101991Y-50524994D01*
X87033751Y-50912000D01*
X87033751Y-50912004D01*
X86999500Y-51303499D01*
X86999500Y-51696500D01*
X87033751Y-52087995D01*
X87033751Y-52087999D01*
X87101991Y-52475005D01*
X87101993Y-52475015D01*
X87203707Y-52854616D01*
X87329673Y-53200704D01*
X87338124Y-53223921D01*
X87504195Y-53580062D01*
X87504207Y-53580086D01*
X87700695Y-53920412D01*
X87700704Y-53920427D01*
X87926115Y-54242347D01*
X87954431Y-54276092D01*
X88178722Y-54543391D01*
X88456609Y-54821278D01*
X88563738Y-54911170D01*
X88757652Y-55073884D01*
X88757658Y-55073888D01*
X88757659Y-55073889D01*
X89079579Y-55299300D01*
X89419920Y-55495796D01*
X89419934Y-55495802D01*
X89419937Y-55495804D01*
X89776078Y-55661875D01*
X89776083Y-55661876D01*
X89776092Y-55661881D01*
X90145384Y-55796293D01*
X90524985Y-55898007D01*
X90912007Y-55966249D01*
X91303502Y-56000499D01*
X91303503Y-56000500D01*
X91303504Y-56000500D01*
X91696497Y-56000500D01*
X91696497Y-56000499D01*
X92087993Y-55966249D01*
X92475015Y-55898007D01*
X92854616Y-55796293D01*
X93223908Y-55661881D01*
X93252971Y-55648329D01*
X93309532Y-55621954D01*
X93580080Y-55495796D01*
X93920421Y-55299300D01*
X94242341Y-55073889D01*
X94543391Y-54821278D01*
X94821278Y-54543391D01*
X95073889Y-54242341D01*
X95299300Y-53920421D01*
X95495796Y-53580080D01*
X95661881Y-53223908D01*
X95796293Y-52854616D01*
X95898007Y-52475015D01*
X95966249Y-52087993D01*
X96000500Y-51696496D01*
X96000500Y-51303504D01*
X95966249Y-50912007D01*
X95949901Y-50819295D01*
X95946780Y-50801592D01*
X95898007Y-50524985D01*
X95796293Y-50145384D01*
X95661881Y-49776092D01*
X95661876Y-49776083D01*
X95661875Y-49776078D01*
X95495804Y-49419937D01*
X95495792Y-49419913D01*
X95475487Y-49384744D01*
X95299300Y-49079579D01*
X95073889Y-48757659D01*
X95073888Y-48757658D01*
X95073884Y-48757652D01*
X94821275Y-48456606D01*
X94543393Y-48178724D01*
X94242347Y-47926115D01*
X93920427Y-47700704D01*
X93920424Y-47700702D01*
X93920421Y-47700700D01*
X93819305Y-47642320D01*
X93580086Y-47504207D01*
X93580062Y-47504195D01*
X93223921Y-47338124D01*
X93223910Y-47338120D01*
X93223908Y-47338119D01*
X92854616Y-47203707D01*
X92613960Y-47139223D01*
X92475016Y-47101993D01*
X92475005Y-47101991D01*
X92087997Y-47033751D01*
X91696500Y-46999500D01*
X91696496Y-46999500D01*
X91303504Y-46999500D01*
X91303499Y-46999500D01*
X90912004Y-47033751D01*
X90912000Y-47033751D01*
X90716629Y-47068201D01*
X90647190Y-47060457D01*
X90592961Y-47016400D01*
X90571159Y-46950019D01*
X90582715Y-46893680D01*
X90661881Y-46723908D01*
X90796293Y-46354616D01*
X90898007Y-45975015D01*
X90966249Y-45587993D01*
X91000500Y-45196496D01*
X91000500Y-45003750D01*
X91000726Y-44996263D01*
X91018271Y-44706205D01*
X91020076Y-44691340D01*
X91041779Y-44572914D01*
X91071780Y-44409197D01*
X91075364Y-44394663D01*
X91092699Y-44339033D01*
X91160696Y-44120822D01*
X91165998Y-44106841D01*
X91283731Y-43845249D01*
X91290676Y-43832016D01*
X91439080Y-43586526D01*
X91447567Y-43574230D01*
X91615720Y-43359598D01*
X144000000Y-43359598D01*
X144000000Y-43640401D01*
X144031437Y-43919412D01*
X144031439Y-43919424D01*
X144093921Y-44193178D01*
X144093922Y-44193180D01*
X144186662Y-44458217D01*
X144308492Y-44711200D01*
X144457884Y-44948956D01*
X144564187Y-45082257D01*
X145563708Y-44082736D01*
X145660967Y-44216602D01*
X145783398Y-44339033D01*
X145917262Y-44436290D01*
X144917741Y-45435810D01*
X144917741Y-45435811D01*
X145051043Y-45542115D01*
X145288799Y-45691507D01*
X145541782Y-45813337D01*
X145806819Y-45906077D01*
X145806821Y-45906078D01*
X146080575Y-45968560D01*
X146080587Y-45968562D01*
X146359598Y-45999999D01*
X146359600Y-46000000D01*
X146640400Y-46000000D01*
X146640401Y-45999999D01*
X146919412Y-45968562D01*
X146919424Y-45968560D01*
X147193178Y-45906078D01*
X147193180Y-45906077D01*
X147458217Y-45813337D01*
X147711200Y-45691507D01*
X147948956Y-45542116D01*
X148082257Y-45435810D01*
X147082737Y-44436290D01*
X147216602Y-44339033D01*
X147339033Y-44216602D01*
X147436290Y-44082737D01*
X148435810Y-45082257D01*
X148542116Y-44948956D01*
X148691507Y-44711200D01*
X148813337Y-44458217D01*
X148869515Y-44297669D01*
X148910237Y-44240893D01*
X148975189Y-44215145D01*
X149043751Y-44228601D01*
X149094154Y-44276988D01*
X149107448Y-44311029D01*
X149112225Y-44331960D01*
X149112227Y-44331965D01*
X149223532Y-44650054D01*
X149369752Y-44953683D01*
X149369754Y-44953686D01*
X149549054Y-45239039D01*
X149759175Y-45502523D01*
X149997477Y-45740825D01*
X150260961Y-45950946D01*
X150546314Y-46130246D01*
X150849949Y-46276469D01*
X151029227Y-46339201D01*
X151168034Y-46387772D01*
X151168046Y-46387776D01*
X151496606Y-46462767D01*
X151831492Y-46500499D01*
X151831493Y-46500500D01*
X151831496Y-46500500D01*
X152168507Y-46500500D01*
X152168507Y-46500499D01*
X152503394Y-46462767D01*
X152831954Y-46387776D01*
X153150051Y-46276469D01*
X153453686Y-46130246D01*
X153739039Y-45950946D01*
X154002523Y-45740825D01*
X154240825Y-45502523D01*
X154450946Y-45239039D01*
X154630246Y-44953686D01*
X154776469Y-44650051D01*
X154887776Y-44331954D01*
X154962767Y-44003394D01*
X155000500Y-43668504D01*
X155000500Y-43331496D01*
X154962767Y-42996606D01*
X154887776Y-42668046D01*
X154776469Y-42349949D01*
X154630246Y-42046314D01*
X154450946Y-41760961D01*
X154394313Y-41689946D01*
X154394313Y-41689944D01*
X154240831Y-41497483D01*
X154002522Y-41259174D01*
X153911594Y-41186662D01*
X153739039Y-41049054D01*
X153453686Y-40869754D01*
X153453683Y-40869752D01*
X153150054Y-40723532D01*
X152831965Y-40612227D01*
X152831953Y-40612223D01*
X152503397Y-40537233D01*
X152503381Y-40537231D01*
X152168508Y-40499500D01*
X152168504Y-40499500D01*
X151831496Y-40499500D01*
X151831491Y-40499500D01*
X151496618Y-40537231D01*
X151496602Y-40537233D01*
X151168046Y-40612223D01*
X151168034Y-40612227D01*
X150849945Y-40723532D01*
X150546316Y-40869752D01*
X150260962Y-41049053D01*
X149997477Y-41259174D01*
X149759174Y-41497477D01*
X149549053Y-41760962D01*
X149369752Y-42046316D01*
X149223532Y-42349945D01*
X149112227Y-42668034D01*
X149112226Y-42668036D01*
X149107448Y-42688971D01*
X149073338Y-42749949D01*
X149011676Y-42782805D01*
X148942038Y-42777109D01*
X148886536Y-42734668D01*
X148869515Y-42702330D01*
X148813337Y-42541782D01*
X148691507Y-42288799D01*
X148542115Y-42051043D01*
X148435810Y-41917741D01*
X147436290Y-42917262D01*
X147339033Y-42783398D01*
X147216602Y-42660967D01*
X147082736Y-42563709D01*
X148082257Y-41564187D01*
X147948956Y-41457884D01*
X147711200Y-41308492D01*
X147458217Y-41186662D01*
X147193180Y-41093922D01*
X147193178Y-41093921D01*
X146919424Y-41031439D01*
X146919412Y-41031437D01*
X146640401Y-41000000D01*
X146359598Y-41000000D01*
X146080587Y-41031437D01*
X146080575Y-41031439D01*
X145806821Y-41093921D01*
X145806819Y-41093922D01*
X145541782Y-41186662D01*
X145288799Y-41308492D01*
X145051043Y-41457884D01*
X144917741Y-41564187D01*
X145917263Y-42563709D01*
X145783398Y-42660967D01*
X145660967Y-42783398D01*
X145563709Y-42917263D01*
X144564187Y-41917741D01*
X144457884Y-42051043D01*
X144308492Y-42288799D01*
X144186662Y-42541782D01*
X144093922Y-42806819D01*
X144093921Y-42806821D01*
X144031439Y-43080575D01*
X144031437Y-43080587D01*
X144000000Y-43359598D01*
X91615720Y-43359598D01*
X91624480Y-43348417D01*
X91634395Y-43337226D01*
X91837226Y-43134395D01*
X91848417Y-43124480D01*
X92074230Y-42947567D01*
X92086526Y-42939080D01*
X92332016Y-42790676D01*
X92345249Y-42783731D01*
X92606841Y-42665998D01*
X92620822Y-42660696D01*
X92894668Y-42575362D01*
X92909197Y-42571780D01*
X93191344Y-42520075D01*
X93206201Y-42518271D01*
X93496264Y-42500726D01*
X93503751Y-42500500D01*
X102065890Y-42500500D01*
X102065892Y-42500500D01*
X102193186Y-42466392D01*
X102307314Y-42400500D01*
X102400500Y-42307314D01*
X102466392Y-42193186D01*
X102500500Y-42065892D01*
X102500500Y-37504066D01*
X102500765Y-37495956D01*
X102504819Y-37434108D01*
X102517075Y-37247102D01*
X102519190Y-37231048D01*
X102567045Y-36990462D01*
X102571243Y-36974797D01*
X102594337Y-36906762D01*
X102650093Y-36742512D01*
X102656291Y-36727547D01*
X102764790Y-36507533D01*
X102772893Y-36493498D01*
X102909182Y-36289527D01*
X102919039Y-36276681D01*
X103080786Y-36092244D01*
X103092244Y-36080786D01*
X103276681Y-35919039D01*
X103289527Y-35909182D01*
X103493498Y-35772893D01*
X103507533Y-35764790D01*
X103727547Y-35656291D01*
X103742512Y-35650093D01*
X103906762Y-35594337D01*
X103974797Y-35571243D01*
X103990464Y-35567045D01*
X104231048Y-35519190D01*
X104247102Y-35517075D01*
X104495957Y-35500765D01*
X104504067Y-35500500D01*
X113065890Y-35500500D01*
X113065892Y-35500500D01*
X113193186Y-35466392D01*
X113307314Y-35400500D01*
X113400500Y-35307314D01*
X113466392Y-35193186D01*
X113500500Y-35065892D01*
X113500500Y-31003246D01*
X113500670Y-30996756D01*
X113516592Y-30692953D01*
X113517949Y-30680046D01*
X113565028Y-30382794D01*
X113567723Y-30370107D01*
X113645627Y-30079368D01*
X113649636Y-30067033D01*
X113757493Y-29786054D01*
X113762763Y-29774215D01*
X113899415Y-29506023D01*
X113905891Y-29494808D01*
X114069819Y-29242380D01*
X114077434Y-29231899D01*
X114266858Y-28997979D01*
X114275525Y-28988354D01*
X114488354Y-28775525D01*
X114497979Y-28766858D01*
X114731899Y-28577434D01*
X114742380Y-28569819D01*
X114994808Y-28405891D01*
X115006023Y-28399415D01*
X115274215Y-28262763D01*
X115286054Y-28257493D01*
X115567040Y-28149633D01*
X115579368Y-28145627D01*
X115870107Y-28067723D01*
X115882786Y-28065029D01*
X116180046Y-28017949D01*
X116192951Y-28016592D01*
X116496756Y-28000669D01*
X116503246Y-28000500D01*
X241376000Y-28000500D01*
X241443039Y-28020185D01*
G37*
%TD.AperFunction*%
%TD*%
M02*
